<svg xmlns="http://www.w3.org/2000/svg" id="Layer_1" width="1780" height="1518" data-name="Layer 1"><defs><style>.cls-2{fill:#f2f4f7}.cls-3{fill:#57ce87}.cls-4{fill:#299655}.cls-5{fill:#196d3b}.cls-6{fill:#ed8a74}.cls-8{fill:#81a2c9}.cls-9{fill:#d3ddef}.cls-10{fill:#fff}.cls-11{fill:#dd842a}.cls-12{fill:#294473}.cls-13{fill:#366bc6}.cls-14{fill:#093793}.cls-15{fill:#11223d}.cls-17{fill:#11233f}.cls-18{fill:#e23758}.cls-19{fill:#b72c4e}.cls-21{fill:#e25d47}</style></defs><ellipse cx="909.153" cy="1396.496" fill="#f2e4e2" rx="684.432" ry="22.058"/><path d="M89.214 483.664C59.457 644.148 106.27 865.995 300.34 913.8c196.229 48.338 401.808-48.07 568.714 142.246 281.34 320.802 814.078 293.467 841.734-79.335 24.285-327.37-321.465-477.842-601.325-397.968-158.858 45.34-345.8-267.024-543.182-346.664s-442.73 66.397-477.067 251.585z" class="cls-2"/><circle cx="1063.296" cy="395.634" r="137.7" class="cls-2"/><path d="M587.705 1215.06c14.28-46.335 68.732-13.397 95.01-20.014a.016.016 0 0 0 .021-.011 16.748 16.748 0 0 0 10.046-6.555c18.134-25.543 6.666-54.487 6.666-54.487s-1.944 6.85-13.19 11.497-35.019-28.503-81.71-11.272-16.843 80.842-16.843 80.842z" class="cls-3"/><path d="M587.705 1215.06c14.28-46.335 68.732-13.397 95.01-20.014a.016.016 0 0 0 .021-.011c14.731-12.14 13.593-44.65 13.593-44.65a28.957 28.957 0 0 1-9.174 9.868c-6.028 3.81-46.531-18.133-74.207-6.531-27.671 11.585-25.243 61.338-25.243 61.338z" class="cls-4"/><path d="M641.711 1150.925a40.75 40.75 0 0 0-25.195-.923 35.043 35.043 0 0 0-11.721 5.94 39.444 39.444 0 0 0-8.849 9.75 59.463 59.463 0 0 0-8.368 24.224 93.692 93.692 0 0 0 .127 25.144 232.117 232.117 0 0 1 3.732-24.443c.453-1.982 1.04-3.922 1.511-5.884.664-1.9 1.149-3.866 1.948-5.698a50.954 50.954 0 0 1 5.265-10.608 36.196 36.196 0 0 1 17.616-14.727c7.353-2.873 15.644-3.599 23.934-2.775z" class="cls-5"/><path d="M616.728 1181.72a5.94 5.94 0 1 0-4.092-7.334 5.94 5.94 0 0 0 4.092 7.335zm22.614-14.838a3.496 3.496 0 1 0-2.409-4.318 3.496 3.496 0 0 0 2.409 4.318z" class="cls-5"/><path d="M594.897 1155.001a4.199 4.199 0 1 0-2.893-5.186 4.2 4.2 0 0 0 2.893 5.186z" class="cls-4"/><path d="M667.133 1153.81a3.496 3.496 0 1 0-2.409-4.317 3.496 3.496 0 0 0 2.409 4.318zm-9.239 25.64a5.94 5.94 0 1 0-4.092-7.335 5.94 5.94 0 0 0 4.092 7.335z" class="cls-5"/><path d="M634.616 1144.584a4.278 4.278 0 1 0-2.948-5.284 4.278 4.278 0 0 0 2.948 5.284z" class="cls-4"/><path d="M596.354 1215.06c-14.28-46.335-68.732-13.397-95.01-20.014a.016.016 0 0 1-.021-.011 16.748 16.748 0 0 1-10.046-6.555c-18.134-25.543-6.666-54.487-6.666-54.487s1.944 6.85 13.19 11.497 35.019-28.503 81.71-11.272 16.843 80.842 16.843 80.842z" class="cls-3"/><path d="M596.354 1215.06c-14.28-46.335-68.732-13.397-95.01-20.014a.016.016 0 0 1-.021-.011c-14.731-12.14-13.593-44.65-13.593-44.65a28.957 28.957 0 0 0 9.174 9.868c6.028 3.81 46.531-18.133 74.207-6.531 27.672 11.585 25.243 61.338 25.243 61.338z" class="cls-4"/><path d="M542.348 1150.925a40.75 40.75 0 0 1 25.195-.923 35.043 35.043 0 0 1 11.721 5.94 39.444 39.444 0 0 1 8.85 9.75 59.463 59.463 0 0 1 8.367 24.224 93.692 93.692 0 0 1-.127 25.144 232.117 232.117 0 0 0-3.732-24.443c-.453-1.982-1.04-3.922-1.51-5.884-.665-1.9-1.15-3.866-1.949-5.698a50.954 50.954 0 0 0-5.264-10.608 36.196 36.196 0 0 0-17.617-14.727c-7.353-2.873-15.644-3.599-23.934-2.775z" class="cls-5"/><path d="M567.33 1181.72a5.94 5.94 0 1 1 4.093-7.334 5.94 5.94 0 0 1-4.092 7.335zm-22.613-14.838a3.496 3.496 0 1 1 2.409-4.318 3.496 3.496 0 0 1-2.409 4.318z" class="cls-5"/><path d="M589.162 1155.001a4.199 4.199 0 1 1 2.893-5.186 4.2 4.2 0 0 1-2.893 5.186z" class="cls-4"/><path d="M516.926 1153.81a3.496 3.496 0 1 1 2.409-4.317 3.496 3.496 0 0 1-2.409 4.318zm9.239 25.64a5.94 5.94 0 1 1 4.093-7.335 5.94 5.94 0 0 1-4.093 7.335z" class="cls-5"/><path d="M549.443 1144.584a4.278 4.278 0 1 1 2.948-5.284 4.278 4.278 0 0 1-2.948 5.284z" class="cls-4"/><path d="M528.08 1277.229h132.849l-22.885 125.616H552.16l-24.08-125.616z" class="cls-6"/><path fill="#ce5b49" d="m660.929 1277.229-106.16 34.705-2.609 90.911-24.08-125.616h132.849z"/><path d="M502.932 1231.953c66.326 1.344 43.308 77.077 61.833 106.044 0 .02.023.02.023.02a22.373 22.373 0 0 0 12.38 9.718c40.396 12.922 74.212-10.441 74.212-10.441s-9.743 0-20.06-11.785 24.44-51.172-15.682-100.792-112.706 7.236-112.706 7.236z" class="cls-3"/><path d="M502.932 1231.953c66.326 1.344 43.308 77.077 61.833 106.044 0 .02.023.02.023.02 21.482 13.398 63.85 1.096 63.85 1.096a41.613 41.613 0 0 1-16.416-7.567c-7.268-5.872 6.488-61.344-19.12-90.289-25.586-28.945-90.17-9.304-90.17-9.304z" class="cls-4"/><path d="M607.527 1274.459a46.447 46.447 0 0 0-8.196-30.22 45.332 45.332 0 0 0-12.198-11.913 56.513 56.513 0 0 0-16.14-7.22 89.945 89.945 0 0 0-35.01-1.774 138.99 138.99 0 0 0-33.05 8.62c11.293-1.662 22.445-3.252 33.568-3.802 2.778-.13 5.55-.088 8.31-.19 2.747.15 5.517.062 8.226.394a76.547 76.547 0 0 1 15.931 2.676 50.002 50.002 0 0 1 25.966 15.952c6.528 7.76 10.58 17.359 12.593 27.477z" class="cls-5"/><ellipse cx="565.785" cy="1255.176" class="cls-5" rx="8.127" ry="7.329"/><ellipse cx="590.421" cy="1277.022" class="cls-5" rx="4.783" ry="4.314"/><ellipse cx="590.421" cy="1220.261" class="cls-4" rx="5.745" ry="5.181"/><path d="M613.224 1305.609a4.809 4.809 0 1 0 4.783-4.314 4.567 4.567 0 0 0-4.783 4.314z" class="cls-5"/><ellipse cx="584.15" cy="1303.278" class="cls-5" rx="8.127" ry="7.329"/><path d="M613.224 1263.9a5.885 5.885 0 1 0 5.854-5.279 5.589 5.589 0 0 0-5.854 5.28z" class="cls-4"/><path d="M605.839 1199.578c-69.663 1.565-45.487 89.769-64.943 123.504a.024.024 0 0 1-.024.024c-3.058 5.322-7.224 9.271-13.003 11.318-42.428 15.05-77.946-12.16-77.946-12.16s10.234 0 21.07-13.726-25.669-59.597 16.47-117.388 118.376 8.428 118.376 8.428z" class="cls-3"/><path d="M605.839 1199.578c-69.663 1.565-45.487 89.769-64.943 123.504a.024.024 0 0 1-.024.024c-22.563 15.604-67.062 1.277-67.062 1.277a41.616 41.616 0 0 0 17.241-8.814c7.633-6.838-6.814-71.444 20.083-105.156 26.872-33.711 94.705-10.835 94.705-10.835z" class="cls-4"/><path d="M495.983 1249.082a58.565 58.565 0 0 1 8.608-35.195 50.36 50.36 0 0 1 12.811-13.874 56.682 56.682 0 0 1 16.952-8.409c12.099-3.576 24.747-3.856 36.772-2.066a134.651 134.651 0 0 1 34.713 10.04c-11.862-1.936-23.575-3.788-35.257-4.429-2.918-.151-5.83-.102-8.729-.22-2.885.173-5.795.072-8.64.458a73.23 73.23 0 0 0-16.732 3.117 52.018 52.018 0 0 0-27.272 18.579c-6.857 9.037-11.112 20.215-13.226 32z" class="cls-5"/><circle cx="539.824" cy="1226.624" r="8.536" class="cls-5" transform="rotate(-45 539.824 1226.624)"/><circle cx="513.949" cy="1252.067" r="5.024" class="cls-5"/><path d="M519.984 1185.96a6.035 6.035 0 1 1-6.035-6.035 6.034 6.034 0 0 1 6.035 6.035z" class="cls-4"/><circle cx="484.975" cy="1285.361" r="5.024" class="cls-5"/><circle cx="520.536" cy="1282.647" r="8.536" class="cls-5" transform="rotate(-80.783 520.535 1282.646)"/><path d="M490 1236.785a6.149 6.149 0 1 1-6.15-6.148 6.149 6.149 0 0 1 6.15 6.148z" class="cls-4"/><path d="M574.652 1210.257c69.662 1.565 45.486 89.769 64.943 123.504a.024.024 0 0 0 .024.025c3.058 5.321 7.224 9.27 13.003 11.317 42.428 15.05 77.946-12.16 77.946-12.16s-10.234 0-21.07-13.725 25.669-59.598-16.47-117.389-118.376 8.428-118.376 8.428z" class="cls-3"/><path d="M574.652 1210.257c69.662 1.565 45.486 89.769 64.943 123.504a.024.024 0 0 0 .024.025c22.562 15.603 67.062 1.276 67.062 1.276a41.616 41.616 0 0 1-17.241-8.813c-7.634-6.839 6.814-71.445-20.083-105.156-26.873-33.712-94.705-10.836-94.705-10.836z" class="cls-4"/><path d="M684.508 1259.762a58.565 58.565 0 0 0-8.608-35.196 50.36 50.36 0 0 0-12.812-13.874 56.682 56.682 0 0 0-16.951-8.409c-12.099-3.576-24.748-3.856-36.772-2.066a134.654 134.654 0 0 0-34.713 10.04c11.861-1.936 23.575-3.788 35.257-4.429 2.918-.152 5.83-.102 8.728-.22 2.886.173 5.795.072 8.641.458a73.226 73.226 0 0 1 16.732 3.117 52.018 52.018 0 0 1 27.272 18.578c6.856 9.038 11.112 20.217 13.226 32z" class="cls-5"/><circle cx="640.666" cy="1237.304" r="8.536" class="cls-5"/><path d="M661.517 1262.746a5.024 5.024 0 1 0 5.024-5.024 5.024 5.024 0 0 0-5.024 5.024z" class="cls-5"/><circle cx="666.541" cy="1196.639" r="6.035" class="cls-4"/><circle cx="695.515" cy="1296.041" r="5.024" class="cls-5"/><circle cx="659.955" cy="1293.326" r="8.536" class="cls-5"/><circle cx="696.64" cy="1247.465" r="6.149" class="cls-4"/><circle cx="574.308" cy="215.427" r="92.757" class="cls-8" transform="rotate(-45 574.308 215.427)"/><circle cx="574.308" cy="215.427" r="84.009" class="cls-9"/><path d="M777.699 78.437v337.598h599.753V78.437zm588.363 326.906H787.74V89.128h578.322z" class="cls-8"/><path d="M787.74 89.128h578.322v316.215H787.74z" class="cls-10"/><path d="M803.392 101.337h244.409v289.872H803.392zm259.852 131.234h286.804v158.637h-286.804zm0-131.234h286.804v114.09h-286.804z" class="cls-9"/><path d="M823.86 124.815h43.946v52.373H823.86z" class="cls-10"/><path d="M832.438 144.68h26.789v1.806h-26.789zm0 10.234h26.789v1.806h-26.789z" class="cls-11"/><path d="M899.711 177.188h43.946v52.373h-43.946z" class="cls-10"/><path d="M908.289 197.054h26.789v1.806h-26.789zm0 10.234h26.789v1.806h-26.789z" class="cls-12"/><path d="M852.554 264.076H896.5v52.373h-43.946z" class="cls-10"/><path d="M861.133 283.941h26.789v1.806h-26.789zm0 10.234h26.789v1.806h-26.789z" class="cls-3"/><path d="M976.966 233.374h43.945v52.373h-43.945z" class="cls-10"/><path d="M985.545 253.24h26.789v1.806h-26.789zm0 10.234h26.789v1.806h-26.789z" class="cls-11"/><path d="M928.606 316.449h43.946v52.373h-43.946z" class="cls-10"/><path d="M937.185 336.315h26.789v1.806h-26.789zm0 10.234h26.789v1.806h-26.789z" class="cls-3"/><path d="M972.552 129.631h43.945v52.373h-43.945z" class="cls-10"/><path d="M981.13 149.496h26.789v1.806H981.13zm0 10.234h26.789v1.806H981.13z" class="cls-12"/><path d="M1091.445 120.3h43.946v52.373h-43.946z" class="cls-10"/><path d="M1100.024 140.165h26.789v1.806h-26.789zm0 10.234h26.789v1.806h-26.789z" class="cls-11"/><path d="M1209.039 141.971h43.946v52.373h-43.946z" class="cls-10"/><path d="M1217.617 161.837h26.789v1.806h-26.789zm0 10.234h26.789v1.806h-26.789z" class="cls-12"/><path d="M1272.023 257.755h43.946v52.373h-43.946z" class="cls-10"/><path d="M1280.602 277.62h26.789v1.806h-26.789zm0 10.234h26.789v1.806h-26.789z" class="cls-12"/><path d="M1122.965 267.988h43.946v52.373h-43.946z" class="cls-10"/><path d="M1131.544 287.854h26.789v1.806h-26.789zm0 10.234h26.789v1.806h-26.789z" class="cls-3"/><path d="m607.32 246.07-33.379-25.493V160.68h4.816v57.515l31.486 24.046-2.923 3.829z" class="cls-10"/><path d="m1391.033 757.653-.096.049c-1.421-1.542-1.228-1.517.096-.049zm26.151.049h-26.127c-.024 0-.048-.024-.024-.049l22.081-9.198a74.006 74.006 0 0 1 8.356 8.74 18 18 0 0 1-4.286.506zm37.973 106.962c0 78.138-38.07 137.35-39.683 139.83l-23.526-6.597c.337-.53 39.13-62.511 39.13-133.233 0-47.413-22.924-84.52-34.554-100.124 10.57-.674 37.78 2.673 52.855 50.592a203.511 203.511 0 0 1 5.778 49.532zm-141.01 133.233c-45.415 15.892-102.267 15.772-147.32 17.481v-1.468a15.97 15.97 0 0 1 7.055-13.268h.024a15.787 15.787 0 0 1 8.91-2.745z" class="cls-13"/><path d="M1435.893 1013.91v21.768a16.021 16.021 0 0 1-16.012 16.013h-237.065a16 16 0 0 1-15.99-16.013v-6.55c35.928 1.902 138.532 5.707 160.3-10.956a133.781 133.781 0 0 0 21.744-20.276h71.01a16.021 16.021 0 0 1 16.013 16.014z" class="cls-13"/><path d="M1286.011 1051.683h30.68v337.919h-30.68z" class="cls-12"/><path d="M1397.077 1387.675a10.178 10.178 0 0 1-1.42 5.225 9.546 9.546 0 0 1-1.638 2.143 10.39 10.39 0 0 1-7.369 3.058h-170.58a10.373 10.373 0 0 1-9.006-5.2 10.177 10.177 0 0 1-1.42-5.226 10.43 10.43 0 0 1 10.426-10.427h170.58a10.43 10.43 0 0 1 10.427 10.427z" class="cls-12"/><path d="M1348.87 997.897a133.781 133.781 0 0 1-21.744 20.275c-21.768 16.663-124.372 12.858-160.299 10.956v-13.75c45.053-1.71 101.906-1.59 147.32-17.482zm100.508-182.765c-15.074-47.919-42.284-51.266-52.855-50.592-2.408-3.226-4.334-5.562-5.466-6.838h26.127a18 18 0 0 0 4.286-.506c8.26 9.969 20.708 28.8 27.908 57.936z" class="cls-14"/><path d="m1316.691 1051.683-21.672 13.244-9.008 132.438v-145.682h30.68zm78.965 341.217a9.546 9.546 0 0 1-1.637 2.143 10.39 10.39 0 0 1-7.369 3.058h-170.58a6.012 6.012 0 1 1 0-10.426h170.58a10.345 10.345 0 0 1 9.006 5.225z" class="cls-15"/><path d="M784.923 724.183h77.063l-17.634 112.789h-42.164l-17.265-112.789z" class="cls-10"/><path fill="#efe3d8" d="m785.72 724.183 61.818 18.845-7.224 93.944h4.038l16.837-112.789H785.72z"/><path d="M861.189 724.183H785.72a8.018 8.018 0 0 1-8.018-8.019 8.018 8.018 0 0 1 8.018-8.018h75.469a8.018 8.018 0 0 1 8.019 8.018 8.018 8.018 0 0 1-8.02 8.019z" class="cls-11"/><path d="M832.287 1293.283s3.01 13.845 0 24.681-12.34 22.575-12.34 22.575-163.441-87.891-158.926-93.61 123.91 5.418 123.91 5.418 28.996 10.234 29.898 11.438 17.458 29.497 17.458 29.497zm366.012-140.465a118.938 118.938 0 0 1 31.906 8.026c15.652 6.622 17.758 12.943 17.758 12.943s-83.977 161.936-94.512 157.421 16.755-117.79 16.755-117.79z" class="cls-17"/><path d="m793.903 1241.727-8.972 10.62s3.943 15.725 21.772 28.293c18.36 12.943 25.584 12.642 25.584 12.642l7.07-7.525-5.263-30.701-26.79-10.535zm394.69-95.651 9.706 6.742a150.174 150.174 0 0 1-12.04 36.52c-9.23 19.264-16.053 24.08-16.053 24.08l-11.595-5.985 16.01-54.615zm-291.29-347.222c.36.602-2.384 5.394-4.624 9.054-1.492 2.456-2.793 4.454-2.841 4.454-.024-.096-12.401 4.937-25.452 3.54-13.028-1.396-12.426-7.825-15.435-9.03s-11.848 4.624-16.062 8.838c-1.95 1.95-8.813 2.6-16.398 2.432-8.837-.193-18.638-1.517-22.538-3.251-7.224-3.203 28.703-40.526 40.14-41.32 11.438-.82 28.101 5.008 33.11 8.21 5.033 3.227 18.662 3.612 18.662 3.612s10.836 12.45 11.438 13.46z" class="cls-6"/><path d="m1224.185 651.847-41.803 81.582s-55.118 55.986-133.377 73.443-158.517 7.224-158.517 7.224l-.65-1.734a46.263 46.263 0 0 1-.987-3.25c-3.444-12.498-2.986-26.921-2.986-26.921s9.632-7.224 42.741-19.264 163.742-36.12 163.742-36.12c30.1-51.771 79.8-122.518 79.8-122.518z" class="cls-9"/><path d="M1152.09 892.976s-218.668-12.26-241.945 39.11c-38.156 84.207 227.955 290.563 227.955 290.563s14.448 1.605 36.12-40.133 16.856-63.41 16.856-63.41-185.414-133.241-159.729-147.689 178.19-27.29 178.19-27.29 15.25-28.896 16.053-32.106 8.027-41.16 8.027-41.16l-24.08-9.408z" class="cls-15"/><path d="M1347.617 980.824a111.969 111.969 0 0 1-23.502 13.268 149.398 149.398 0 0 1-9.969 3.805c-45.414 15.892-102.266 15.772-147.32 17.481a655.6 655.6 0 0 0-16.566.747c-26.488 1.541-46.98 4.696-55.504 14.087-24.682 27.09-227.553 263.07-227.553 263.07s-34.121-1.613-58.2-30.509-24.08-44.138-24.08-44.138 103.445-118.712 179.513-197.67l.048-.048c34.218-35.517 62.897-62.968 74.094-67.953 24.754-11.004 110.526-40.839 162.104-58.537l.024-.024c23.67-8.115 40.141-13.678 40.141-13.678l68.531-4.599 78.476-5.273c-16.182 10.811-65.328 41.176-106.89 41.176-1.614 0-3.227-.024-4.816-.096 0 0 29.714 10.932 62.607-2.721 23.478-9.729 37.757-18.638 50.423-22.539.506 23.116-4.14 66.363-41.56 94.151z" class="cls-15"/><path d="M1391.9 805.428c-2.986-35.036-9.343-69.76-17.265-102.435-.072-.386-.12-.578-.12-.578-7.682-31.593-16.784-61.283-25.645-87.482a1408.756 1408.756 0 0 0-11.703-33.206c-25.693-70.24-91.503-76.646-122.421-55.287a100.607 100.607 0 0 0-24.032 23.887 99.004 99.004 0 0 0-18.565 53.963c-.361 7.585-.819 17.048-1.373 27.691a3179.346 3179.346 0 0 1-2.937 47.87c-.747 10.764-1.565 21.768-2.48 32.604v.024c-1.06 12.425-2.216 24.634-3.492 36.024a450.81 450.81 0 0 1-.746 6.284c-1.373 11.679-2.89 22.322-4.552 31.208a387.506 387.506 0 0 0-6.26 76.092 300.753 300.753 0 0 0 2.24 34.674c16.518-6.983 32.145-6.044 48.159-2.36 23.14 5.322 47.027 16.374 75.441 17.53 1.59.072 3.203.096 4.816.096a119.518 119.518 0 0 0 31.954-4.912s.072-.024.24-.072c32.027-9.078 62.584-28.101 74.696-36.192 3.516-2.36 5.49-3.78 5.49-3.78l.217-5.61a468.983 468.983 0 0 0-1.662-56.034zm-195.214 51.41-29.86 23.838v-.024l24.49-23.815s-.843-14.447-4.094-68.025c-.746-12.353-1.155-30.124-1.324-50.182 74.262-34.193 109.539-82.882 119.556-121.988 5.586-21.768 6.188-37.54 4.406-48.954 1.18 5.466 15.195 75.033-29.497 123.601-46.546 50.568-89.047 64.51-89.047 64.51z" class="cls-9"/><path d="M1182.671 514.69s-.626-19.048 0-19.939c.602-.915 13.942-8.331 13.942-8.331l12.426 1.54c-8.404 9.873-17.723 19.553-26.368 26.73zm57.117 1.998-52.156 38.07c-.434-7.874-1.59-17.313-2.65-25.043l26.248-31.665-1.397-9.993 12.45 1.541 7.32.915z" class="cls-6"/><path d="M1236.225 446.279c.12 4.792-9.03 19.264-21.335 34.626a283.897 283.897 0 0 1-5.177 6.261c-.217.265-.458.53-.674.795-8.404 9.872-17.723 19.552-26.368 26.728a86.803 86.803 0 0 1-7.994 6.02 70.49 70.49 0 0 1-2.914 1.83c-5.297 3.106-9.92 4.551-13.388 3.612-19.866-5.418-27.09-50.784-26.68-53.577.41-2.818-9.849 1.396-11.655-3.829-1.806-5.201 13.653-22.274 11.438-29.883-2.215-7.633 0-20.275 0-20.275l14.76-16.543 45.752-10.836s31.593 15.026 33.712 17.434c2.095 2.408 10.21 25.597 10.523 37.637zM991.213 743.013l-6.983 12.16-3.515 6.116s-11.173 4.359-29.522 6.213c-18.373 1.854-26.199-11.486-34.916-17.506-7.633-5.274-25.62 8.307-35.036 6.983a6.015 6.015 0 0 1-3.491-1.589c-7.537-7.224 32.195-37.01 42.428-37.01s23.791 8.115 33.712 13.436 28.486 0 28.486 0z" class="cls-6"/><path d="m1191.316 856.838-24.49 23.815v.024l-6.452 6.26-10.066-24.85-7.994-19.697 12.377-91.43 9.222-68.315 6.863-50.663 7.152-52.951 4.767-5.13 4.527 5.13s-.626 30.629-1.083 69.397a7837.53 7837.53 0 0 0-.337 43.488c-.048 15.965-.048 31.978.096 46.715.169 20.058.578 37.829 1.324 50.182 3.251 53.577 4.094 68.025 4.094 68.025z" class="cls-18"/><path d="M1187.63 554.747s-16.647 14.94-13.035 21.261 13.939 3.913 16.18.602-3.144-21.863-3.144-21.863z" class="cls-19"/><path fill="#281c1a" d="M1151.282 445.257c1.007 5.528.74 10.206-.595 10.45s-3.236-4.04-4.243-9.568-.74-10.206.595-10.45 3.236 4.041 4.243 9.568z"/><path d="m1211.23 498.05-26.247 31.665c-.144-1.132-.313-2.24-.457-3.275h-.024c-.988-6.887-1.83-11.751-1.83-11.751 8.644-7.176 17.963-16.856 26.367-26.728l.795.096z" class="cls-21"/><path fill="#230e0d" d="M1267.528 422.223s12.04 15.026 7.826 27.355c-4.07 11.943-21.672 41.32-48.954 50.856a.34.34 0 0 1-.144.048q-1.3.47-2.673.867c-28.896 8.428-32.508-28.583-22.587-29.185 9.945-.602 14.159-23.164 6.333-33.11s-20.155 16.254-27.379 19.77c-7.224 3.491 16.543-45.366-48.472-40.237s-65.906-63.812-65.906-63.812c5.707-50.254 68.314-3.01 68.314-3.01s23.478-15.05 44.162-13.845a46.27 46.27 0 0 1 32.002 15.651s53.264 3.3 66.195 19.264-8.717 49.388-8.717 49.388z"/><path d="m984.23 755.173-3.516 6.116s-11.173 4.359-29.521 6.213c-18.373 1.854-26.2-11.486-34.916-17.506-7.633-5.273-25.62 8.307-35.036 6.983.698-.433 26.415-16.663 34.723-12.305 8.428 4.407 23.887 18.253 35.325 18.06 10.186-.192 28.92-6.237 32.941-7.56zm-94.392 57.189c-.024-.096-12.401 4.937-25.452 3.54-13.028-1.396-12.426-7.825-15.435-9.03s-11.848 4.624-16.062 8.838c-1.95 1.95-8.813 2.6-16.398 2.432 7.561-5.466 30.196-21.239 34.867-17.891 5.611 4.02 10.836 13.653 21.263 12.449a99.693 99.693 0 0 0 16.23-3.588c.289 1.108.626 2.191.987 3.25z" class="cls-21"/><path d="M1140.914 500.668s5.282 3.092 11.702-3.647 3.265-9.06 3.265-9.06z" class="cls-10"/><path d="M1189.42 458.821c.19-.902 13.244-20.97 15.35-13.295s4.064 20.769-3.762 22.424-13.093-2.004-11.588-9.129zm-51.32-30.151a9.03 9.03 0 0 1 5.814-3.014 17.818 17.818 0 0 1 6.667.275 12.27 12.27 0 0 1 5.912 3.354 10.64 10.64 0 0 1 2.978 5.856 15.91 15.91 0 0 0-9.468-6.873 28.004 28.004 0 0 0-5.935-.747 13.503 13.503 0 0 0-5.968 1.149z" class="cls-21"/><path d="M1280.363 865.458c-10.62 5.635-59.598 3.612-83.677-8.62l-29.86 23.839v-.024l24.49-23.815s-.843-14.448-4.094-68.025c-.746-12.353-1.155-30.124-1.324-50.182 74.262-34.193 109.539-82.882 119.556-121.988 5.586-21.768 6.188-37.54 4.406-48.954 1.18 5.466 15.195 75.032-29.497 123.601a291.22 291.22 0 0 1-46.835 41.393c-.337 11.8-.241 65.376 29.786 58.947 33.712-7.224 60.994-21.07 61.813-10.956.795 10.137-40.141 45.462-75.466 49.869-35.301 4.43 41.345 29.305 30.702 34.915zm-122.47-115.582s-21.407 17.12-72.769 23.622c-51.362 6.477-105.565-6.357-102.748-8.765 0 0 92.563 11.92 172.315-13.774 1.083-.36 2.143-.698 3.202-1.083z" class="cls-8"/><path fill="#09121e" d="m1027.206 1126.06 65.85-82.379-5.982-4.85-68.502 78.817 8.634 8.412zm12.089-15.123 47.779 69.563-59.868-54.44 12.089-15.123zm161.412-216.535-.024.024c-51.579 17.699-137.35 47.533-162.105 58.538-11.197 4.984-39.876 32.435-74.093 67.953 1.59-1.999 52.951-65.666 62.728-73.178 9.897-7.634 173.494-53.337 173.494-53.337zm188.472-7.729c-12.666 3.9-26.945 12.81-50.423 22.538-32.893 13.653-62.607 2.721-62.607 2.721 1.589.072 3.202.096 4.816.096 41.561 0 90.708-30.364 106.89-41.176a108.218 108.218 0 0 1 1.324 15.82z"/><path d="M1179.228 663.983a.075.075 0 0 1-.024.049c0-.025.024-.025 0-.049z" class="cls-9"/><path d="m1182.671 579.932-.278 269.682-22.02 37.323 30.943-30.099-4.094-277.808-4.551.902z" class="cls-19"/><path d="M1305.454 616.643c-10.017 39.105-45.294 87.794-119.556 121.987a341.52 341.52 0 0 1-12.93 5.635q-5.49 2.276-11.102 4.238a8.486 8.486 0 0 1-1.01.361c-.988.337-1.975.699-2.963 1.012-1.06.385-2.119.722-3.202 1.083-79.752 25.693-172.315 13.774-172.315 13.774-7.32-11.751 0-32.917 0-32.917s20.877-13.244 62.222-28.077c37.035-13.316 57.647-12.762 88.734-14.81h.024c3.564-.24 7.272-.505 11.173-.842 8.283-.698 14.472-2.504 19.384-5.442a28.232 28.232 0 0 0 3.925-2.793c4.624-3.877 8.043-9.102 11.366-15.82 0-.024.024-.024 0-.048h.024c2.24-4.503 4.43-9.68 6.91-15.556 4.985-11.75 11.102-26.295 20.998-43.825 50.158-88.95 84.472-65.617 84.472-65.617s14.352 4.43 18.18 28.366c0 0 .024.12.072.337 1.782 11.413 1.18 27.186-4.406 48.954z" class="cls-9"/><path d="M1179.204 664.032c-.169.963-3.42 16.687-10.716 24.898-7.488 8.452-34.024 0-35.132 0 3.564-.24 7.272-.506 11.173-.843 8.283-.698 14.472-2.504 19.384-5.442a28.232 28.232 0 0 0 3.925-2.793c4.624-3.877 8.043-9.102 11.366-15.82z" class="cls-8"/><path fill="#aa6363" d="M1267.528 422.223s12.04 15.026 7.826 27.355c-4.07 11.943-21.672 41.32-48.954 50.856 20.058-8.26 38.135-35.967 43.29-51.416 5.025-15.058-9.988-27.83-9.988-27.83s18.011-27.646 11.262-41.35c-7.111-14.44-65.441-13.624-66.645-13.624s-1.999-9.223-23.67-16.615c-21.672-7.417-45.752 11.39-45.752 11.39s-29.505-17.65-41.754-20.059c-23.416-4.603-27.571 13.846-27.571 13.846 5.707-50.254 68.314-3.01 68.314-3.01s23.478-15.05 44.162-13.846a46.27 46.27 0 0 1 32.002 15.652s53.264 3.3 66.195 19.264-8.717 49.387-8.717 49.387z"/><path d="M349.489 1301.819h616.267v20.231H349.489z" class="cls-12"/><path d="M492.964 734.934h7.826v40.635h-7.826z" class="cls-14"/><path d="M920.178 844.124v25.428a7.153 7.153 0 0 1-7.151 7.151H404.8a7.474 7.474 0 0 1-2.215-.337 7.198 7.198 0 0 1-4.937-6.814v-25.428a7.152 7.152 0 0 1 7.152-7.152h508.227a7.112 7.112 0 0 1 5.947 3.179 7.033 7.033 0 0 1 1.204 3.973z" class="cls-18"/><path d="M440.967 876.703h65.015v5.638a5.8 5.8 0 0 1-5.8 5.8h-53.414a5.8 5.8 0 0 1-5.8-5.8v-5.638z" class="cls-19"/><path d="m481.542 888.141-3.299 11.005-150.811 503.699H306.17l152.81-503.699 3.347-11.005h19.215z" class="cls-12"/><path d="M871.059 888.141h-53.414a5.8 5.8 0 0 1-5.801-5.801v-5.637h65.015v5.637a5.8 5.8 0 0 1-5.8 5.8z" class="cls-19"/><path d="M1011.657 1402.845h-21.262L839.584 899.146l-3.299-11.005H855.5l3.347 11.005 152.81 503.699z" class="cls-12"/><rect width="188.424" height="25.284" x="403.669" y="785.803" class="cls-18" rx="3.275"/><path d="M414.103 811.086h25.886v25.886h-25.886z" class="cls-19"/><path d="M502.786 408.755h7.636v334.27h-7.636a21.235 21.235 0 0 1-21.235-21.235v-291.8a21.235 21.235 0 0 1 21.236-21.236z" class="cls-13"/><path d="M439.989 775.569h111.996v10.234H439.989z" class="cls-15"/><path d="M478.204 440.998h3.347v265.806h-3.347a21.56 21.56 0 0 1-21.56-21.559V462.557a21.56 21.56 0 0 1 21.56-21.56z" class="cls-14"/><path d="M732.627 824.13h173.775v12.842H732.627z" class="cls-15"/><path d="M660.176 678.413 743.7 830.8l-11.261 6.172-83.523-152.386z" class="cls-15"/><path d="M850.347 824.13H744.605a4.214 4.214 0 0 1 4.214-4.214h97.314a4.214 4.214 0 0 1 4.214 4.214z" class="cls-18"/><path fill="#e56180" d="m918.974 840.15-516.389 36.216a7.198 7.198 0 0 1-4.936-6.814v-25.428a7.152 7.152 0 0 1 7.151-7.152h508.227a7.112 7.112 0 0 1 5.947 3.178z"/><rect width="188.424" height="14.351" x="403.669" y="796.735" class="cls-19" rx="3.275"/><path fill="#1f3556" d="M354.661 1311.934h608.505l2.59 10.116H351.633l3.028-10.116zm107.666-423.793h19.215l-3.299 11.005H458.98l3.347-11.005zm396.641 11.005h-19.384l-3.299-11.005H855.5l3.468 11.005z"/><path d="M1189.269 1225.257h96.742v24.08h-96.742z" class="cls-17"/><path d="M1435.893 567.93v171.038a19.017 19.017 0 0 1-1.155 6.55 18.76 18.76 0 0 1-13.268 11.678 18 18 0 0 1-4.286.506h-32.412a18.576 18.576 0 0 1-8.692-2.143c0-.024-.025-.024-.049-.024a18.515 18.515 0 0 1-5.658-4.624 6.646 6.646 0 0 1-.795-1.035 18.549 18.549 0 0 1-3.516-10.908V567.929a18.714 18.714 0 0 1 18.71-18.71h32.412a18.714 18.714 0 0 1 18.71 18.71z" class="cls-14"/><path d="M1425.419 573.01v163.501a10.12 10.12 0 0 1-7.393 9.753 9.505 9.505 0 0 1-2.769.41h-28.582a10.164 10.164 0 0 1-10.162-10.163V573.01a10.137 10.137 0 0 1 10.162-10.138h28.582a10.143 10.143 0 0 1 10.162 10.138z" class="cls-13"/><path fill="#205db7" d="M1425.419 573.01v163.501a10.12 10.12 0 0 1-7.393 9.753c-11.462-52.181-29.425-132.824-40.574-177.516a10.16 10.16 0 0 1 9.223-5.875h28.582a10.143 10.143 0 0 1 10.162 10.137z"/></svg>